<svg width="30" height="28" viewBox="0 0 30 28" fill="none" xmlns="http://www.w3.org/2000/svg">
<path d="M4.81525 0.142694C5.3057 0.136801 5.79615 0.130907 6.30147 0.124834C7.09932 0.119746 7.09932 0.119746 7.91328 0.114555C8.73039 0.108995 8.73039 0.108995 9.564 0.103323C10.7182 0.0969638 11.8724 0.0920417 13.0266 0.0884334C14.7944 0.0805204 16.5619 0.0603692 18.3296 0.0401142C19.4495 0.0354649 20.5694 0.031554 21.6893 0.0284548C22.2193 0.0204151 22.7494 0.0123754 23.2955 0.004092C23.7888 0.00543542 24.2822 0.00677885 24.7905 0.00816298C25.2241 0.0054692 25.6578 0.00277541 26.1046 0C27.6043 0.290539 28.1402 0.898645 29.0975 2.06078C29.6457 3.15724 29.6207 3.84634 29.6307 5.07036C29.6351 5.50417 29.6395 5.93798 29.6441 6.38493C29.646 6.85513 29.648 7.32532 29.65 7.80976C29.6526 8.29225 29.6552 8.77474 29.6579 9.27186C29.6623 10.2944 29.6653 11.317 29.667 12.3395C29.6715 13.9027 29.6857 15.4656 29.7002 17.0288C29.7032 18.0216 29.7056 19.0144 29.7074 20.0073C29.7131 20.4747 29.7187 20.9421 29.7246 21.4237C29.7117 25.521 29.7117 25.521 28.1791 27.3168C27.0209 27.8959 26.2057 27.8438 24.9093 27.8573C24.4189 27.8632 23.9284 27.8691 23.4231 27.8752C22.8912 27.8786 22.3593 27.882 21.8113 27.8854C21.2665 27.8892 20.7218 27.8929 20.1606 27.8967C19.0064 27.903 17.8522 27.908 16.698 27.9116C14.9301 27.9195 13.1627 27.9396 11.395 27.9599C10.2751 27.9645 9.15516 27.9684 8.03526 27.9715C7.50522 27.9796 6.97518 27.9876 6.42908 27.9959C5.93573 27.9946 5.44238 27.9932 4.93408 27.9918C4.50042 27.9945 4.06675 27.9972 3.61995 28C2.12027 27.7095 1.58437 27.1014 0.627057 25.9392C0.0788248 24.8428 0.103895 24.1537 0.0938637 22.9296C0.089452 22.4958 0.0850402 22.062 0.0804947 21.6151C0.0785431 21.1449 0.0765916 20.6747 0.0745809 20.1902C0.0719634 19.7078 0.0693459 19.2253 0.0666491 18.7281C0.0623058 17.7056 0.0593077 16.683 0.0575402 15.6605C0.0530877 14.0973 0.0388469 12.5344 0.0243558 10.9712C0.0213568 9.97841 0.018946 8.98556 0.0171808 7.99272C0.0115111 7.52532 0.00584147 7.05791 0 6.57635C0.0128872 2.47903 0.0128871 2.47903 1.54546 0.683175C2.70364 0.104082 3.51883 0.156231 4.81525 0.142694ZM3.38226 8.48959C3.32457 9.63645 3.29565 10.7699 3.28899 11.9175C3.28637 12.2612 3.28375 12.6049 3.28106 12.959C3.27671 13.6874 3.27371 14.4159 3.27195 15.1443C3.26749 16.2611 3.25325 17.3775 3.23876 18.4942C3.23576 19.2007 3.23335 19.9071 3.23159 20.6136C3.22592 20.9489 3.22025 21.2842 3.21441 21.6297C3.20301 22.6725 3.20301 22.6725 3.38226 24.1024C4.81165 25.0553 5.12729 25.1363 6.74914 25.1397C7.1491 25.1426 7.54907 25.1454 7.96115 25.1484C8.39168 25.1466 8.8222 25.1447 9.26577 25.1428C9.70902 25.1437 10.1523 25.1446 10.609 25.1455C11.5462 25.1461 12.4834 25.1444 13.4206 25.1406C14.8567 25.1356 16.2926 25.1405 17.7287 25.1464C18.6387 25.1458 19.5488 25.1446 20.4588 25.1428C20.8893 25.1447 21.3198 25.1465 21.7634 25.1484C22.1634 25.1455 22.5633 25.1426 22.9754 25.1397C23.503 25.1386 23.503 25.1386 24.0413 25.1374C25.1094 25.0723 25.1094 25.0723 26.3423 24.1024C26.4706 22.9026 26.5133 21.8129 26.493 20.6136C26.4921 20.2694 26.4913 19.9253 26.4904 19.5707C26.4873 18.843 26.4809 18.1154 26.4715 17.3878C26.4571 16.2701 26.4526 15.1528 26.4499 14.035C26.4457 13.3291 26.441 12.6233 26.4356 11.9175C26.4336 11.5812 26.4317 11.2449 26.4297 10.8985C26.545 9.33186 26.545 9.33186 25.8831 8.03039C25.1949 7.98524 24.5046 7.97162 23.8149 7.97097C23.3751 7.96952 22.9354 7.96808 22.4823 7.96658C22.0039 7.96751 21.5256 7.96844 21.0328 7.9694C20.5453 7.96896 20.0578 7.96852 19.5555 7.96807C18.5225 7.96776 17.4895 7.96861 16.4565 7.97052C14.8691 7.97298 13.2819 7.97055 11.6945 7.96761C10.6936 7.96791 9.69269 7.9685 8.69177 7.9694C8.21345 7.96847 7.73513 7.96754 7.24231 7.96658C6.58265 7.96876 6.58265 7.96876 5.90966 7.97097C5.5205 7.97134 5.13134 7.9717 4.73038 7.97208C3.83845 7.93249 3.83845 7.93249 3.38226 8.48959Z" fill="white"/>
<path d="M21.7504 14.4592C22.6596 14.4592 23.5688 14.4592 24.5056 14.4592C24.5056 15.52 24.5056 16.5807 24.5056 17.6736C23.5964 17.6736 22.6871 17.6736 21.7504 17.6736C21.7504 16.6129 21.7504 15.5521 21.7504 14.4592Z" fill="white"/>
<path d="M16.24 14.4592C17.1492 14.4592 18.0584 14.4592 18.9952 14.4592C18.9952 15.52 18.9952 16.5807 18.9952 17.6736C18.086 17.6736 17.1768 17.6736 16.24 17.6736C16.24 16.6129 16.24 15.5521 16.24 14.4592Z" fill="white"/>
<path d="M10.7296 14.4592C11.6388 14.4592 12.548 14.4592 13.4848 14.4592C13.4848 15.52 13.4848 16.5807 13.4848 17.6736C12.5756 17.6736 11.6664 17.6736 10.7296 17.6736C10.7296 16.6129 10.7296 15.5521 10.7296 14.4592Z" fill="white"/>
<path d="M5.21912 14.4592C6.12833 14.4592 7.03755 14.4592 7.97432 14.4592C7.97432 15.52 7.97432 16.5807 7.97432 17.6736C7.0651 17.6736 6.15589 17.6736 5.21912 17.6736C5.21912 16.6129 5.21912 15.5521 5.21912 14.4592Z" fill="white"/>
<path d="M16.24 19.5105C17.1492 19.5105 18.0584 19.5105 18.9952 19.5105C18.9952 20.4197 18.9952 21.3289 18.9952 22.2657C18.086 22.2657 17.1768 22.2657 16.24 22.2657C16.24 21.3565 16.24 20.4473 16.24 19.5105Z" fill="white"/>
<path d="M10.7296 19.5105C11.6388 19.5105 12.548 19.5105 13.4848 19.5105C13.4848 20.4197 13.4848 21.3289 13.4848 22.2657C12.5756 22.2657 11.6664 22.2657 10.7296 22.2657C10.7296 21.3565 10.7296 20.4473 10.7296 19.5105Z" fill="white"/>
<path d="M5.21912 19.5105C6.12833 19.5105 7.03755 19.5105 7.97432 19.5105C7.97432 20.4197 7.97432 21.3289 7.97432 22.2657C7.0651 22.2657 6.15589 22.2657 5.21912 22.2657C5.21912 21.3565 5.21912 20.4473 5.21912 19.5105Z" fill="white"/>
<path d="M21.7504 9.86719C22.6596 9.86719 23.5688 9.86719 24.5056 9.86719C24.5056 10.7764 24.5056 11.6856 24.5056 12.6224C23.5964 12.6224 22.6871 12.6224 21.7504 12.6224C21.7504 11.7132 21.7504 10.804 21.7504 9.86719Z" fill="white"/>
<path d="M16.24 9.86719C17.1492 9.86719 18.0584 9.86719 18.9952 9.86719C18.9952 10.7764 18.9952 11.6856 18.9952 12.6224C18.086 12.6224 17.1768 12.6224 16.24 12.6224C16.24 11.7132 16.24 10.804 16.24 9.86719Z" fill="white"/>
<path d="M10.7296 9.86719C11.6388 9.86719 12.548 9.86719 13.4848 9.86719C13.4848 10.7764 13.4848 11.6856 13.4848 12.6224C12.5756 12.6224 11.6664 12.6224 10.7296 12.6224C10.7296 11.7132 10.7296 10.804 10.7296 9.86719Z" fill="white"/>
</svg>
