<svg width="19" height="10" viewBox="0 0 19 10" fill="none" xmlns="http://www.w3.org/2000/svg">
<path d="M13.3886 7.43653C13.3886 5.14253 11.4841 3.22147 9.18147 3.22147C6.87221 3.22147 4.96708 5.14253 4.96708 7.43653C4.96708 8.00389 5.08387 8.54803 5.30152 9.03045H13.0541C13.278 8.52908 13.3921 7.98561 13.3886 7.43653ZM0.899999 7.8798H2.8131C3.21788 7.8798 3.52047 7.59977 3.51251 7.2494C3.50521 6.89969 3.20925 6.61966 2.8131 6.61966H0.899999C0.495216 6.61966 0.207886 6.89969 0.207886 7.25006C0.207886 7.59977 0.495879 7.8798 0.899999 7.8798ZM4.22851 3.39267C4.50788 3.68 4.92792 3.68797 5.16947 3.43913C5.41101 3.19028 5.41035 2.7782 5.12302 2.49817L3.76932 1.14513C3.48199 0.857798 3.08517 0.865098 2.83632 1.10664C2.58748 1.34752 2.57952 1.75164 2.87547 2.03963L4.22851 3.39267ZM13.1868 3.43913C13.4357 3.68 13.8478 3.68 14.1278 3.39267L15.4808 2.03897C15.7761 1.75164 15.7609 1.35548 15.5193 1.10664C15.2784 0.857798 14.8743 0.857798 14.5863 1.14513L13.2326 2.49883C12.9453 2.7782 12.9387 3.19825 13.1868 3.43913ZM15.5419 7.8798H17.455C17.8598 7.8798 18.1471 7.59977 18.1471 7.2494C18.1471 6.89969 17.8598 6.61966 17.455 6.61966H15.5432C15.147 6.61966 14.8358 6.89969 14.8438 7.25006C14.8511 7.59977 15.147 7.8798 15.5432 7.8798" fill="#F2F2F2"/>
</svg>
