<svg width="12" height="12" viewBox="0 0 12 12" fill="none" xmlns="http://www.w3.org/2000/svg">
<path d="M9.21389 8.10487C5.99165 8.10487 3.93073 6.05485 3.93073 2.77648C3.93073 2.09881 4.09184 1.1311 4.30632 0.62943C4.35969 0.490078 4.37188 0.405435 4.37188 0.345049C4.37213 0.29865 4.3631 0.252683 4.34536 0.209925C4.32761 0.167167 4.30152 0.128507 4.26864 0.0962818C4.23577 0.0640562 4.1968 0.0389342 4.1541 0.0224342C4.11139 0.00593414 4.06583 -0.00160134 4.02018 0.000283225C3.95462 0.000283225 3.8118 0.0183473 3.68068 0.0668623C1.47695 0.961809 0 3.36898 0 5.90311C0 9.46019 2.66826 12 6.15835 12C8.72547 12 10.947 10.4212 11.6855 8.44963C11.7393 8.31028 11.7515 8.16577 11.7515 8.11106C11.7521 8.01445 11.7158 7.92136 11.6502 7.85138C11.5846 7.7814 11.4949 7.73998 11.3998 7.73584C11.3221 7.73584 11.2565 7.75391 11.1437 7.79055C10.6847 7.94177 9.94626 8.10538 9.21389 8.10538" fill="#F2F2F2"/>
</svg>
